<?xml version="1.0" encoding="UTF-8" standalone="no"?>
<!-- Created with Inkscape (http://www.inkscape.org/) -->

<svg
   width="512"
   height="512"
   viewBox="0 0 512 512"
   version="1.1"
   id="svg1"
   xml:space="preserve"
   inkscape:version="1.4 (86a8ad7, 2024-10-11)"
   sodipodi:docname="C_7.svg"
   inkscape:export-filename="C_7.png"
   inkscape:export-xdpi="96"
   inkscape:export-ydpi="96"
   xmlns:inkscape="http://www.inkscape.org/namespaces/inkscape"
   xmlns:sodipodi="http://sodipodi.sourceforge.net/DTD/sodipodi-0.dtd"
   xmlns="http://www.w3.org/2000/svg"
   xmlns:svg="http://www.w3.org/2000/svg"><sodipodi:namedview
     id="namedview1"
     pagecolor="#ffffff"
     bordercolor="#000000"
     borderopacity="0.25"
     inkscape:showpageshadow="2"
     inkscape:pageopacity="0.0"
     inkscape:pagecheckerboard="true"
     inkscape:deskcolor="#d1d1d1"
     inkscape:document-units="px"
     inkscape:zoom="0.71891836"
     inkscape:cx="227.42499"
     inkscape:cy="298.36489"
     inkscape:window-width="1920"
     inkscape:window-height="1009"
     inkscape:window-x="1912"
     inkscape:window-y="-8"
     inkscape:window-maximized="1"
     inkscape:current-layer="layer1"
     showgrid="true"><inkscape:grid
       id="grid3"
       units="px"
       originx="0"
       originy="0"
       spacingx="1"
       spacingy="1"
       empcolor="#0099e5"
       empopacity="0.30196078"
       color="#0099e5"
       opacity="0.14901961"
       empspacing="5"
       enabled="true"
       visible="true" /></sodipodi:namedview><defs
     id="defs1" /><g
     inkscape:label="Layer 1"
     inkscape:groupmode="layer"
     id="layer1"><ellipse
       style="opacity:1;fill:#d8e294;fill-opacity:1;stroke:none;stroke-width:1.67372;stroke-linecap:square;stroke-linejoin:round;stroke-dasharray:none;stroke-opacity:1"
       id="path4"
       cx="256"
       cy="475.48322"
       rx="158.18695"
       ry="36.516796" /><path
       style="opacity:1;fill:#af7e48;fill-opacity:1;stroke:#000000;stroke-width:2.06358;stroke-linecap:square;stroke-linejoin:round;stroke-dasharray:none;stroke-opacity:1"
       d="M 237.89955,478.39535 C 233.21503,369.61652 207.63091,378.10099 190.60996,335.9296 c 3.32485,-20.38385 22.00615,-33.5357 42.18099,-62.43433 18.12757,-27.76675 22.05292,-46.00134 22.48026,-56.55391 0.20732,-5.11973 27.37026,-8.45119 26.73994,-3.34206 -2.20024,17.83482 -3.57961,41.84968 -11.29846,57.76716 -8.88225,18.31668 -38.47439,33.36147 -40.53392,52.29082 -1.65038,15.16893 16.85708,28.96239 23.16226,43.75351 15.82152,37.11531 28.03657,71.95375 36.67356,112.5853 0.61583,2.89718 -7.29537,-5.62162 -12.54622,-5.3358 -3.40326,0.18524 -4.04955,3.11271 -6.75568,4.26863 -4.55389,1.94522 -13.83753,7.32421 -15.44148,4.26864 -4.06131,-7.73692 -17.21756,-1.22387 -17.37166,-4.80221 z"
       id="path2"
       sodipodi:nodetypes="sccssssssssss" /><path
       style="opacity:1;fill:#41a62a;fill-opacity:1;stroke:#000000;stroke-width:1.51538;stroke-linecap:square;stroke-linejoin:round;stroke-dasharray:none;stroke-opacity:1"
       d="m 249.28053,223.59525 c 6.88085,1.62435 13.06931,-7.20834 20.12151,-6.70716 9.97329,0.70879 16.91329,14.7006 26.82867,13.41433 16.40769,-2.12847 34.47388,-16.48205 37.26204,-32.7906 1.19948,-7.01602 -10.5399,-11.514 -10.43338,-18.63102 0.13002,-8.68995 11.96531,-13.78794 13.41434,-22.35721 2.03075,-12.00938 -9.62802,-23.78757 -7.45242,-35.77156 3.15138,-17.35888 31.35366,-27.334763 28.31916,-44.714448 C 355.58199,65.966239 337.41594,39.704636 323.37261,32.138942 309.32928,24.573232 299.40866,35.70343 290.29332,28.872604 272.06266,15.210935 280.90091,1.2482653 260.45915,0.76826934 238.89313,0.26185934 223.52848,18.011188 203.53821,31.483889 c -19.99029,13.472701 -44.6062,22.668777 -48.90326,43.808445 -2.15577,10.605513 13.4185,17.411703 17.14054,27.573926 5.87203,16.03228 0.64075,35.02018 7.45242,50.67636 2.53835,5.83423 9.32979,9.09516 11.92385,14.90481 1.8482,4.13925 -0.43878,9.75424 2.23571,13.41433 6.42368,8.79091 20.26437,8.49366 29.06441,14.90483 10.22204,7.44716 14.51982,23.92293 26.82865,26.82866 z"
       id="path3"
       sodipodi:nodetypes="sssssssssssssssssss" /></g></svg>
