<?xml version="1.0" encoding="UTF-8" standalone="no"?>
<svg
   viewBox="0 0 256 512"
   id="Icons_Badge10"
   overflow="hidden"
   version="1.1"
   sodipodi:docname="ui_bar_mark_nature.svg"
   inkscape:export-filename="ui_bar_mark_nature.png"
   inkscape:export-xdpi="37.5"
   inkscape:export-ydpi="37.5"
   inkscape:version="1.4 (86a8ad7, 2024-10-11)"
   xml:space="preserve"
   width="256"
   height="512"
   xmlns:inkscape="http://www.inkscape.org/namespaces/inkscape"
   xmlns:sodipodi="http://sodipodi.sourceforge.net/DTD/sodipodi-0.dtd"
   xmlns="http://www.w3.org/2000/svg"
   xmlns:svg="http://www.w3.org/2000/svg"><defs
     id="defs2" /><sodipodi:namedview
     id="namedview2"
     pagecolor="#ffffff"
     bordercolor="#000000"
     borderopacity="0.25"
     inkscape:showpageshadow="2"
     inkscape:pageopacity="0.0"
     inkscape:pagecheckerboard="0"
     inkscape:deskcolor="#d1d1d1"
     inkscape:zoom="1.0507813"
     inkscape:cx="100.40148"
     inkscape:cy="214.60222"
     inkscape:window-width="1920"
     inkscape:window-height="1009"
     inkscape:window-x="1912"
     inkscape:window-y="-8"
     inkscape:window-maximized="1"
     inkscape:current-layer="Icons_Badge10" /><path
     id="path4"
     style="opacity:1;fill:#eb7360;fill-opacity:1;stroke:#000000;stroke-width:9.26001;stroke-linecap:square;stroke-linejoin:round;stroke-dasharray:none;stroke-opacity:1"
     d="m 200.599,367.79071 c 0,20.23153 -17.91064,48.18551 -34.84164,74.72194 -16.93102,26.5364 -34.21413,54.31887 -40.68334,64.08584 -6.65756,-9.62434 -23.0104,-36.40795 -38.431307,-63.24639 -15.420915,-26.83843 -31.241709,-55.59621 -31.241709,-75.82774 0,-40.46308 31.470021,-71.66677 71.933106,-71.66677 40.46309,0 73.26489,31.47003 73.26489,71.93312 z"
     sodipodi:nodetypes="sscssss" /><circle
     style="opacity:1;fill:none;fill-opacity:1;stroke:#000000;stroke-width:9.26001;stroke-linecap:square;stroke-linejoin:round;stroke-dasharray:none;stroke-opacity:1"
     id="path5"
     cx="128"
     cy="364.96561"
     r="41.435162" /><g
     id="g1"><rect
       style="fill:#ffffff;fill-opacity:1;stroke:#000000;stroke-width:10;stroke-linecap:square;stroke-linejoin:round;stroke-dasharray:none;stroke-opacity:1"
       id="rect1"
       width="19.082712"
       height="202.65366"
       x="80.812233"
       y="46.905617"
       ry="0" /><path
       id="rect1-8"
       style="opacity:1;fill:#ffffff;stroke:#000000;stroke-width:10;stroke-linecap:square;stroke-linejoin:round;fill-opacity:1"
       d="m 100.34044,48.146454 c 45.09183,40.707294 47.00424,-21.202665 98.82541,5.047007 0.3417,42.063627 0.67817,52.920539 1.68234,105.414649 -38.36249,-51.8107 -56.08885,19.8568 -100.17128,-11.77635 -0.005,-26.24967 -0.34171,-57.631082 -0.33647,-98.685306 z"
       sodipodi:nodetypes="ccccc" /></g></svg>
