<?xml version="1.0" encoding="UTF-8" standalone="no"?>
<!-- Generator: Adobe Illustrator 24.0.0, SVG Export Plug-In . SVG Version: 6.00 Build 0)  -->

<svg
   version="1.1"
   id="Calque_3_-_copie_2"
   x="0px"
   y="0px"
   viewBox="0 0 1380 199.99999"
   xml:space="preserve"
   sodipodi:docname="ui_logo_fordil_toolbar.svg"
   inkscape:version="1.4 (86a8ad7, 2024-10-11)"
   width="1380"
   height="200"
   inkscape:export-filename="ui_logo_fordil_toolbar.png"
   inkscape:export-xdpi="96"
   inkscape:export-ydpi="96"
   xmlns:inkscape="http://www.inkscape.org/namespaces/inkscape"
   xmlns:sodipodi="http://sodipodi.sourceforge.net/DTD/sodipodi-0.dtd"
   xmlns="http://www.w3.org/2000/svg"
   xmlns:svg="http://www.w3.org/2000/svg"><defs
   id="defs37">
	
	
	
</defs><sodipodi:namedview
   id="namedview37"
   pagecolor="#ffffff"
   bordercolor="#000000"
   borderopacity="0.25"
   inkscape:showpageshadow="2"
   inkscape:pageopacity="0.0"
   inkscape:pagecheckerboard="0"
   inkscape:deskcolor="#d1d1d1"
   inkscape:zoom="0.7117657"
   inkscape:cx="649.79248"
   inkscape:cy="283.09878"
   inkscape:window-width="1920"
   inkscape:window-height="1009"
   inkscape:window-x="1912"
   inkscape:window-y="-8"
   inkscape:window-maximized="1"
   inkscape:current-layer="Calque_3_-_copie_2" />
<style
   type="text/css"
   id="style1">
	.st0{fill:#26787A;}
	.st1{fill:#FFFFFF;}
</style>
<rect
   x="-9.8346968"
   y="306.28058"
   class="st0"
   width="1380"
   height="200"
   id="rect1"
   style="stroke-width:0.926721" />
<g
   id="g13"
   transform="matrix(2.0412371,0,0,2.0412371,337.21547,-653.62474)">
		<g
   id="g1">
			<path
   class="st1"
   d="m 171.7,417.7 c -7.8,0 -14.8,-1.7 -20.9,-4.9 -6.1,-3.3 -10.9,-7.9 -14.3,-13.7 -3.4,-5.8 -5.2,-12.7 -5.2,-20.6 0,-7.9 1.7,-14.8 5.2,-20.6 3.4,-5.9 8.2,-10.5 14.3,-13.8 6.1,-3.3 13.1,-4.9 20.9,-4.9 7.8,0 14.8,1.7 20.8,4.9 6,3.3 10.8,7.9 14.2,13.8 3.4,5.9 5.2,12.8 5.2,20.6 0,7.8 -1.7,14.7 -5.2,20.6 -3.4,5.8 -8.2,10.4 -14.2,13.7 -6.1,3.2 -13.1,4.9 -20.8,4.9 z m 0,-59.6 c -3.9,0 -7.4,0.8 -10.4,2.5 -3,1.7 -5.4,4.1 -7.1,7.1 -1.7,3 -2.6,6.6 -2.6,10.7 0,4.1 0.9,7.7 2.6,10.7 1.7,3.1 4.1,5.5 7.1,7.2 3,1.7 6.5,2.5 10.4,2.5 3.9,0 7.5,-0.8 10.4,-2.5 3,-1.7 5.3,-4.1 7,-7.2 1.6,-3.1 2.5,-6.7 2.5,-10.7 0,-4.1 -0.8,-7.6 -2.5,-10.6 -1.7,-3 -4,-5.4 -7,-7.1 -3,-1.7 -6.5,-2.6 -10.4,-2.6 z"
   id="path1" />
		</g>
		<g
   id="g3">
			<g
   id="g2">
				<path
   class="st1"
   d="M 88.6,416.6 H 67.4 v -95.8 h 65.1 V 340 H 88.6 v 20.9 h 32.6 V 380 H 88.6 Z"
   id="path2" />
			</g>
		</g>
		<g
   id="g5">
			<g
   id="g4">
				<path
   class="st1"
   d="m 263.2,340.2 h -41.3 v 76.6 h 21.5 v -20.9 h 18.8 l 8.1,20.9 h 21.8 l -10.8,-26.2 c 3.3,-2.3 5.9,-5.1 7.7,-8.4 2.1,-4 3.2,-8.7 3.2,-14.2 0,-8.8 -2.6,-15.7 -7.8,-20.6 -4.9,-4.8 -12.1,-7.2 -21.2,-7.2 z m -19.9,18.7 h 19.9 c 3,0 5.3,0.8 6.8,2.4 1.5,1.6 2.2,3.8 2.2,6.9 0,3.1 -0.8,5.5 -2.3,7.1 -1.6,1.7 -3.8,2.5 -6.8,2.5 h -19.8 z"
   id="path3" />
			</g>
		</g>
		<g
   id="g7">
			<g
   id="g6">
				<path
   class="st1"
   d="M 345.3,416.2 H 307.4 V 320.7 H 344 c 9.5,0 17.9,2 25.1,6.1 7.2,4 12.9,9.7 17,16.9 4.1,7.2 6.2,15.6 6.2,25 0,9.3 -2,17.5 -6,24.6 -4,7.1 -9.5,12.7 -16.5,16.8 -7,4.1 -15.3,6.1 -24.5,6.1 z m -16,-19.8 H 344 c 5.5,0 10.3,-1.1 14.2,-3.3 3.9,-2.2 7,-5.3 9.1,-9.4 2.1,-4.1 3.1,-9 3.1,-14.7 0,-5.8 -1.1,-10.9 -3.3,-15 -2.2,-4.1 -5.4,-7.3 -9.5,-9.6 -4.1,-2.2 -9.1,-3.3 -14.9,-3.3 h -13.4 z"
   id="path5" />
			</g>
		</g>
		<g
   id="g9">
			<g
   id="g8">
				<path
   class="st1"
   d="M 502.8,416.3 H 443 v -94.1 h 20.8 v 74 h 39 z"
   id="path7" />
			</g>
		</g>
		<g
   id="g12">
			<g
   id="g10">
				<path
   class="st1"
   d="m 403.9,364.2 v 52.5 h 22.3 v -52.5 z"
   id="path9" />
			</g>
			<g
   id="g11">
				<path
   class="st1"
   d="m 414.1,330.3 c -3.8,0 -7,1.3 -9.7,3.9 -2.6,2.6 -4,5.8 -4,9.6 0,3.8 1.3,7.1 4,9.7 2.6,2.6 5.9,4 9.7,4 3.7,0 6.9,-1.3 9.5,-4 2.6,-2.6 3.9,-5.9 3.9,-9.7 0,-3.8 -1.3,-7 -4,-9.6 -2.5,-2.6 -5.7,-3.9 -9.4,-3.9 z"
   id="path10" />
			</g>
		</g>
	</g><g
   id="g30"
   transform="translate(406.32286,-153.98543)">
		<g
   id="g16">
			<path
   class="st1"
   d="m 78.2,455 5.9,-12.1 H 89 L 80.4,459 v 9.4 H 76 V 459 l -8.6,-16.1 h 4.9 z"
   id="path13" />
			<path
   class="st1"
   d="m 111.7,456.3 c 0,1.9 -0.3,3.7 -0.8,5.2 -0.5,1.5 -1.2,2.8 -2.1,3.9 -0.9,1.1 -2,1.9 -3.3,2.5 -1.3,0.6 -2.7,0.9 -4.3,0.9 -1.6,0 -3,-0.3 -4.3,-0.9 -1.3,-0.6 -2.4,-1.4 -3.4,-2.5 -0.9,-1.1 -1.7,-2.4 -2.2,-3.9 -0.5,-1.5 -0.8,-3.3 -0.8,-5.2 V 455 c 0,-1.9 0.3,-3.7 0.8,-5.2 0.5,-1.5 1.2,-2.8 2.2,-3.9 0.9,-1.1 2,-1.9 3.3,-2.5 1.3,-0.6 2.7,-0.9 4.3,-0.9 1.6,0 3,0.3 4.3,0.9 1.3,0.6 2.4,1.4 3.3,2.5 0.9,1.1 1.6,2.4 2.2,3.9 0.6,1.5 0.8,3.3 0.8,5.2 z m -4.4,-1.3 c 0,-1.4 -0.1,-2.7 -0.4,-3.8 -0.3,-1.1 -0.7,-2 -1.2,-2.7 -0.5,-0.7 -1.2,-1.3 -1.9,-1.7 -0.8,-0.4 -1.6,-0.6 -2.6,-0.6 -0.9,0 -1.8,0.2 -2.6,0.6 -0.8,0.4 -1.4,0.9 -1.9,1.7 -0.5,0.7 -0.9,1.6 -1.2,2.7 -0.3,1.1 -0.4,2.4 -0.4,3.8 v 1.3 c 0,1.4 0.1,2.7 0.4,3.8 0.3,1.1 0.7,2 1.2,2.8 0.5,0.7 1.2,1.3 2,1.7 0.8,0.4 1.6,0.6 2.6,0.6 2,0 3.5,-0.7 4.5,-2.2 1.1,-1.5 1.6,-3.7 1.6,-6.6 V 455 Z"
   id="path14" />
			<path
   class="st1"
   d="M 137,442.9 V 460 c 0,1.5 -0.2,2.7 -0.7,3.8 -0.5,1.1 -1.2,2 -2,2.8 -0.9,0.7 -1.9,1.3 -3,1.7 -1.2,0.4 -2.4,0.6 -3.7,0.6 -1.4,0 -2.6,-0.2 -3.8,-0.6 -1.2,-0.4 -2.2,-0.9 -3,-1.7 -0.9,-0.7 -1.5,-1.7 -2,-2.8 -0.5,-1.1 -0.7,-2.4 -0.7,-3.8 v -17.1 h 4.4 V 460 c 0,0.9 0.1,1.7 0.4,2.4 0.2,0.7 0.6,1.2 1,1.6 0.4,0.4 1,0.8 1.6,1 0.6,0.2 1.3,0.3 2.1,0.3 0.8,0 1.5,-0.1 2.1,-0.3 0.6,-0.2 1.2,-0.5 1.6,-1 0.4,-0.4 0.8,-1 1,-1.6 0.2,-0.7 0.4,-1.4 0.4,-2.4 v -17.1 z"
   id="path15" />
			<path
   class="st1"
   d="m 153.2,458.6 h -4.9 v 9.8 h -4.4 v -25.5 h 9 c 1.5,0 2.8,0.2 3.9,0.5 1.1,0.3 2.1,0.8 2.9,1.5 0.8,0.6 1.4,1.5 1.8,2.4 0.4,1 0.6,2.1 0.6,3.3 0,1.7 -0.4,3.1 -1.2,4.3 -0.8,1.2 -2,2 -3.4,2.7 l 5.7,10.6 v 0.2 h -4.7 z m -4.9,-3.6 h 4.6 c 0.8,0 1.5,-0.1 2.1,-0.3 0.6,-0.2 1.1,-0.5 1.5,-0.9 0.4,-0.4 0.7,-0.8 0.9,-1.3 0.2,-0.5 0.3,-1.1 0.3,-1.7 0,-0.7 -0.1,-1.2 -0.3,-1.8 -0.2,-0.5 -0.5,-1 -0.9,-1.4 -0.4,-0.4 -0.9,-0.7 -1.5,-0.9 -0.6,-0.2 -1.3,-0.3 -2.2,-0.3 h -4.5 z"
   id="path16" />
		</g>
		<g
   id="g29">
			<path
   class="st1"
   d="m 194.4,461.8 c 0,-0.5 -0.1,-1 -0.2,-1.4 -0.2,-0.4 -0.4,-0.8 -0.8,-1.1 -0.4,-0.3 -1,-0.7 -1.7,-1 -0.7,-0.3 -1.6,-0.6 -2.7,-1 -1.2,-0.4 -2.3,-0.8 -3.4,-1.2 -1,-0.5 -1.9,-1 -2.7,-1.6 -0.7,-0.6 -1.3,-1.3 -1.7,-2.1 -0.4,-0.8 -0.6,-1.7 -0.6,-2.8 0,-1 0.2,-2 0.7,-2.8 0.4,-0.9 1.1,-1.6 1.8,-2.2 0.8,-0.6 1.7,-1.1 2.9,-1.5 1.1,-0.4 2.3,-0.5 3.7,-0.5 1.4,0 2.7,0.2 3.9,0.6 1.1,0.4 2.1,1 2.9,1.7 0.8,0.7 1.4,1.5 1.8,2.5 0.4,0.9 0.6,1.9 0.6,3 h -4.4 c 0,-0.6 -0.1,-1.2 -0.3,-1.7 -0.2,-0.5 -0.5,-1 -0.9,-1.3 -0.4,-0.4 -0.9,-0.7 -1.5,-0.9 -0.6,-0.2 -1.3,-0.3 -2.2,-0.3 -0.8,0 -1.5,0.1 -2,0.3 -0.6,0.2 -1,0.4 -1.4,0.7 -0.4,0.3 -0.7,0.7 -0.8,1.1 -0.2,0.4 -0.3,0.9 -0.3,1.4 0,0.9 0.4,1.7 1.3,2.4 0.9,0.7 2.3,1.2 4.1,1.8 1.4,0.4 2.7,0.9 3.7,1.4 1.1,0.5 1.9,1.1 2.6,1.7 0.7,0.6 1.2,1.4 1.6,2.2 0.3,0.8 0.5,1.7 0.5,2.7 0,1.1 -0.2,2 -0.6,2.9 -0.4,0.9 -1,1.6 -1.8,2.2 -0.8,0.6 -1.7,1.1 -2.9,1.4 -1.1,0.3 -2.4,0.5 -3.7,0.5 -1.2,0 -2.4,-0.2 -3.6,-0.5 -1.2,-0.3 -2.3,-0.8 -3.2,-1.5 -0.9,-0.7 -1.7,-1.5 -2.3,-2.5 -0.6,-1 -0.9,-2.2 -0.9,-3.5 h 4.4 c 0,0.8 0.1,1.5 0.4,2.1 0.3,0.6 0.7,1.1 1.2,1.4 0.5,0.4 1.1,0.6 1.8,0.8 0.7,0.2 1.4,0.3 2.2,0.3 1.5,0 2.7,-0.3 3.5,-0.9 0.6,-0.9 1,-1.7 1,-2.8 z"
   id="path17" />
			<path
   class="st1"
   d="m 210.7,442.9 7.4,19.5 7.3,-19.5 h 5.7 v 25.5 h -4.4 V 460 l 0.4,-11.2 -7.5,19.7 h -3.2 l -7.5,-19.6 0.4,11.2 v 8.4 h -4.4 V 443 h 5.8 z"
   id="path18" />
			<path
   class="st1"
   d="m 253.1,462.5 h -9.9 l -2.1,5.9 h -4.6 l 9.6,-25.5 h 4 l 9.7,25.5 h -4.6 z m -8.7,-3.6 h 7.4 l -3.7,-10.6 z"
   id="path19" />
			<path
   class="st1"
   d="m 274.2,458.6 h -4.9 v 9.8 h -4.4 v -25.5 h 9 c 1.5,0 2.8,0.2 3.9,0.5 1.1,0.3 2.1,0.8 2.9,1.5 0.8,0.6 1.4,1.5 1.8,2.4 0.4,1 0.6,2.1 0.6,3.3 0,1.7 -0.4,3.1 -1.2,4.3 -0.8,1.2 -2,2 -3.4,2.7 l 5.7,10.6 v 0.2 h -4.7 z m -5,-3.6 h 4.6 c 0.8,0 1.5,-0.1 2.1,-0.3 0.6,-0.2 1.1,-0.5 1.5,-0.9 0.4,-0.4 0.7,-0.8 0.9,-1.3 0.2,-0.5 0.3,-1.1 0.3,-1.7 0,-0.7 -0.1,-1.2 -0.3,-1.8 -0.2,-0.5 -0.5,-1 -0.9,-1.4 -0.4,-0.4 -0.9,-0.7 -1.5,-0.9 -0.6,-0.2 -1.3,-0.3 -2.2,-0.3 h -4.5 z"
   id="path20" />
			<path
   class="st1"
   d="m 306.9,446.5 h -8 v 21.9 h -4.4 v -21.9 h -7.9 v -3.6 h 20.2 v 3.6 z"
   id="path21" />
			<path
   class="st1"
   d="m 327.3,457 h -10.5 v 7.8 H 329 v 3.5 H 312.3 V 442.8 H 329 v 3.6 h -12.1 v 7 h 10.5 v 3.6 z"
   id="path22" />
			<path
   class="st1"
   d="m 339.3,464.9 h 11.6 v 3.5 h -16 v -25.5 h 4.4 z"
   id="path23" />
			<path
   class="st1"
   d="m 375.6,456.3 c 0,1.9 -0.3,3.7 -0.8,5.2 -0.5,1.5 -1.2,2.8 -2.1,3.9 -0.9,1.1 -2,1.9 -3.3,2.5 -1.3,0.6 -2.7,0.9 -4.3,0.9 -1.6,0 -3,-0.3 -4.3,-0.9 -1.3,-0.6 -2.4,-1.4 -3.4,-2.5 -0.9,-1.1 -1.7,-2.4 -2.2,-3.9 -0.5,-1.5 -0.8,-3.3 -0.8,-5.2 V 455 c 0,-1.9 0.3,-3.7 0.8,-5.2 0.5,-1.5 1.2,-2.8 2.2,-3.9 0.9,-1.1 2,-1.9 3.3,-2.5 1.3,-0.6 2.7,-0.9 4.3,-0.9 1.6,0 3,0.3 4.3,0.9 1.3,0.6 2.4,1.4 3.3,2.5 0.9,1.1 1.6,2.4 2.2,3.9 0.5,1.5 0.8,3.3 0.8,5.2 z m -4.4,-1.3 c 0,-1.4 -0.1,-2.7 -0.4,-3.8 -0.3,-1.1 -0.7,-2 -1.2,-2.7 -0.5,-0.7 -1.2,-1.3 -1.9,-1.7 -0.8,-0.4 -1.6,-0.6 -2.6,-0.6 -0.9,0 -1.8,0.2 -2.6,0.6 -0.8,0.4 -1.4,0.9 -1.9,1.7 -0.5,0.7 -0.9,1.6 -1.2,2.7 -0.3,1.1 -0.4,2.4 -0.4,3.8 v 1.3 c 0,1.4 0.1,2.7 0.4,3.8 0.3,1.1 0.7,2 1.2,2.8 0.5,0.7 1.2,1.3 2,1.7 0.8,0.4 1.6,0.6 2.6,0.6 2,0 3.5,-0.7 4.5,-2.2 1.1,-1.5 1.6,-3.7 1.6,-6.6 V 455 Z"
   id="path24" />
			<path
   class="st1"
   d="m 395.5,461.8 c 0,-0.5 -0.1,-1 -0.2,-1.4 -0.2,-0.4 -0.4,-0.8 -0.8,-1.1 -0.4,-0.3 -1,-0.7 -1.7,-1 -0.7,-0.3 -1.6,-0.6 -2.7,-1 -1.2,-0.4 -2.3,-0.8 -3.4,-1.2 -1,-0.5 -1.9,-1 -2.7,-1.6 -0.7,-0.6 -1.3,-1.3 -1.7,-2.1 -0.4,-0.8 -0.6,-1.7 -0.6,-2.8 0,-1 0.2,-2 0.7,-2.8 0.4,-0.9 1.1,-1.6 1.8,-2.2 0.8,-0.6 1.7,-1.1 2.9,-1.5 1.1,-0.4 2.3,-0.5 3.7,-0.5 1.4,0 2.7,0.2 3.9,0.6 1.1,0.4 2.1,1 2.9,1.7 0.8,0.7 1.4,1.5 1.8,2.5 0.4,0.9 0.6,1.9 0.6,3 h -4.4 c 0,-0.6 -0.1,-1.2 -0.3,-1.7 -0.2,-0.5 -0.5,-1 -0.9,-1.3 -0.4,-0.4 -0.9,-0.7 -1.5,-0.9 -0.6,-0.2 -1.3,-0.3 -2.2,-0.3 -0.8,0 -1.5,0.1 -2,0.3 -0.5,0.2 -1,0.4 -1.4,0.7 -0.4,0.3 -0.7,0.7 -0.8,1.1 -0.2,0.4 -0.3,0.9 -0.3,1.4 0,0.9 0.4,1.7 1.3,2.4 0.9,0.6 2.3,1.2 4.1,1.8 1.4,0.4 2.7,0.9 3.7,1.4 1.1,0.5 1.9,1.1 2.6,1.7 0.7,0.6 1.2,1.4 1.6,2.2 0.3,0.8 0.5,1.7 0.5,2.7 0,1.1 -0.2,2 -0.6,2.9 -0.4,0.9 -1,1.6 -1.8,2.2 -0.8,0.6 -1.7,1.1 -2.9,1.4 -1.1,0.3 -2.4,0.5 -3.7,0.5 -1.2,0 -2.4,-0.2 -3.6,-0.5 -1.2,-0.3 -2.3,-0.8 -3.2,-1.5 -0.9,-0.7 -1.7,-1.5 -2.3,-2.5 -0.6,-1 -0.9,-2.2 -0.9,-3.5 h 4.4 c 0,0.8 0.1,1.5 0.4,2.1 0.3,0.6 0.7,1.1 1.2,1.4 0.5,0.4 1.1,0.6 1.8,0.8 0.7,0.2 1.4,0.3 2.2,0.3 1.5,0 2.7,-0.3 3.5,-0.9 0.6,-0.9 1,-1.7 1,-2.8 z"
   id="path25" />
			<path
   class="st1"
   d="m 425.5,460.1 c -0.1,1.2 -0.4,2.4 -0.9,3.5 -0.5,1.1 -1.1,2 -1.9,2.7 -0.8,0.8 -1.8,1.4 -3,1.8 -1.2,0.4 -2.6,0.6 -4.1,0.6 -1.6,0 -3,-0.3 -4.2,-0.8 -1.3,-0.6 -2.3,-1.4 -3.2,-2.4 -0.9,-1 -1.6,-2.3 -2.1,-3.8 -0.5,-1.5 -0.7,-3.1 -0.7,-5 v -2.1 c 0,-1.8 0.2,-3.5 0.7,-5 0.5,-1.5 1.2,-2.8 2.1,-3.8 0.9,-1 2,-1.9 3.3,-2.4 1.3,-0.6 2.7,-0.9 4.3,-0.9 1.5,0 2.9,0.2 4,0.7 1.2,0.4 2.2,1 3,1.8 0.8,0.8 1.4,1.7 1.9,2.8 0.5,1.1 0.8,2.2 0.9,3.5 h -4.4 c -0.1,-0.8 -0.3,-1.5 -0.5,-2.2 -0.2,-0.6 -0.6,-1.2 -1,-1.6 -0.4,-0.5 -1,-0.8 -1.6,-1 -0.6,-0.2 -1.4,-0.4 -2.3,-0.4 -1,0 -1.9,0.2 -2.6,0.6 -0.8,0.4 -1.4,0.9 -1.9,1.6 -0.5,0.7 -0.9,1.6 -1.1,2.7 -0.3,1.1 -0.4,2.2 -0.4,3.6 v 2.1 c 0,1.3 0.1,2.4 0.3,3.5 0.2,1 0.6,1.9 1,2.7 0.5,0.7 1.1,1.3 1.8,1.7 0.7,0.4 1.6,0.6 2.6,0.6 1,0 1.8,-0.1 2.4,-0.3 0.7,-0.2 1.2,-0.5 1.6,-1 0.4,-0.4 0.8,-1 1,-1.6 0.2,-0.6 0.4,-1.4 0.5,-2.2 z"
   id="path26" />
			<path
   class="st1"
   d="m 451.9,456.3 c 0,1.9 -0.3,3.7 -0.8,5.2 -0.5,1.5 -1.2,2.8 -2.1,3.9 -0.9,1.1 -2,1.9 -3.3,2.5 -1.3,0.6 -2.7,0.9 -4.3,0.9 -1.6,0 -3,-0.3 -4.3,-0.9 -1.3,-0.6 -2.4,-1.4 -3.4,-2.5 -0.9,-1.1 -1.7,-2.4 -2.2,-3.9 -0.5,-1.5 -0.8,-3.3 -0.8,-5.2 V 455 c 0,-1.9 0.3,-3.7 0.8,-5.2 0.5,-1.5 1.2,-2.8 2.2,-3.9 0.9,-1.1 2,-1.9 3.3,-2.5 1.3,-0.6 2.7,-0.9 4.3,-0.9 1.6,0 3,0.3 4.3,0.9 1.3,0.6 2.4,1.4 3.3,2.5 0.9,1.1 1.6,2.4 2.2,3.9 0.5,1.5 0.8,3.3 0.8,5.2 z m -4.4,-1.3 c 0,-1.4 -0.1,-2.7 -0.4,-3.8 -0.3,-1.1 -0.7,-2 -1.2,-2.7 -0.5,-0.7 -1.2,-1.3 -1.9,-1.7 -0.8,-0.4 -1.6,-0.6 -2.6,-0.6 -0.9,0 -1.8,0.2 -2.6,0.6 -0.8,0.4 -1.4,0.9 -1.9,1.7 -0.5,0.7 -0.9,1.6 -1.2,2.7 -0.3,1.1 -0.4,2.4 -0.4,3.8 v 1.3 c 0,1.4 0.1,2.7 0.4,3.8 0.3,1.1 0.7,2 1.2,2.8 0.5,0.7 1.2,1.3 2,1.7 0.8,0.4 1.6,0.6 2.6,0.6 2,0 3.5,-0.7 4.5,-2.2 1.1,-1.5 1.6,-3.7 1.6,-6.6 V 455 Z"
   id="path27" />
			<path
   class="st1"
   d="m 462.9,458.9 v 9.5 h -4.4 v -25.5 h 9.8 c 1.5,0 2.8,0.2 3.9,0.6 1.2,0.4 2.1,1 2.9,1.7 0.8,0.7 1.4,1.6 1.8,2.6 0.4,1 0.6,2.1 0.6,3.2 0,1.2 -0.2,2.3 -0.6,3.3 -0.4,1 -1,1.8 -1.8,2.5 -0.8,0.7 -1.8,1.2 -2.9,1.6 -1.1,0.4 -2.5,0.5 -3.9,0.5 z m 0,-3.5 h 5.3 c 0.9,0 1.6,-0.1 2.2,-0.3 0.6,-0.2 1.1,-0.5 1.5,-0.9 0.4,-0.4 0.7,-0.8 0.9,-1.4 0.2,-0.5 0.3,-1.1 0.3,-1.7 0,-0.6 -0.1,-1.2 -0.3,-1.7 -0.2,-0.5 -0.5,-1 -0.9,-1.5 -0.4,-0.4 -0.9,-0.8 -1.5,-1 -0.6,-0.3 -1.3,-0.4 -2.2,-0.4 h -5.3 z"
   id="path28" />
			<path
   class="st1"
   d="M 498.5,457 H 488 v 7.8 h 12.2 v 3.5 h -16.7 v -25.5 h 16.6 v 3.6 H 488 v 7 h 10.5 z"
   id="path29" />
		</g>
	</g><g
   id="g36"
   transform="matrix(0.97554723,0,0,0.97554723,-44.410831,-87.482134)">
		<path
   class="st1"
   d="M 373.1,142.5 V 90.7 h -52.4 c -31.8,0 -54,17.6 -54,53.2 0,0 -0.8,37.2 30.8,49.4 l 13.8,34.9 v 51.5 h 13.8 V 228.2 L 342.8,193 c 31.1,-12.8 30.3,-50.5 30.3,-50.5 z m -53.9,75.1 -8.5,-21.1 c 2.9,0.4 6,0.6 9.3,0.6 3.3,0 6.5,-0.2 9.4,-0.6 z"
   id="path30" />
		<path
   class="st1"
   d="M 500.7,205.3 C 388.2,310.3 161.5,313 61.3,258.9 c -1.2,-0.6 -0.4,-2.4 0.8,-2 121.3,37.5 310.8,25.9 437.3,-53.3 1.1,-0.6 2.3,0.9 1.3,1.7 z"
   id="path31" />
		<path
   class="st1"
   d="m 271,199.8 c 0,-29.6 -18.3,-44.6 -44.4,-45.2 v 23 h -22.9 v 22.9 h -23 c 0.5,8.7 4.5,41 39.5,44.2 v 34.9 h 11.5 v -34.9 c 40.2,-3.6 39.3,-44.9 39.3,-44.9 z"
   id="path32" />
		<g
   id="g33">
			<polygon
   class="st1"
   points="203.7,177.6 203.7,154.6 180.8,154.6 180.8,177.6 "
   id="polygon32" />
			<rect
   x="157.8"
   y="177.60001"
   class="st1"
   width="23"
   height="23"
   id="rect32" />
			<rect
   x="203.7"
   y="131.7"
   class="st1"
   width="23"
   height="23"
   id="rect33" />
		</g>
		<g
   id="g35">
			<rect
   x="130.5"
   y="150.3"
   class="st1"
   width="23"
   height="23"
   id="rect34" />
			<rect
   x="153.5"
   y="127.3"
   class="st1"
   width="23"
   height="23"
   id="rect35" />
		</g>
	</g>
</svg>
