<?xml version="1.0" encoding="UTF-8" standalone="no"?>
<svg
   viewBox="0 0 96 96"
   id="Icons_Badge10"
   overflow="hidden"
   version="1.1"
   sodipodi:docname="ui_number_11.svg"
   inkscape:export-filename="ui_number_11.png"
   inkscape:export-xdpi="96"
   inkscape:export-ydpi="96"
   inkscape:version="1.4 (86a8ad7, 2024-10-11)"
   xmlns:inkscape="http://www.inkscape.org/namespaces/inkscape"
   xmlns:sodipodi="http://sodipodi.sourceforge.net/DTD/sodipodi-0.dtd"
   xmlns="http://www.w3.org/2000/svg"
   xmlns:svg="http://www.w3.org/2000/svg">
  <defs
     id="defs2" />
  <sodipodi:namedview
     id="namedview2"
     pagecolor="#ffffff"
     bordercolor="#000000"
     borderopacity="0.25"
     inkscape:showpageshadow="2"
     inkscape:pageopacity="0.0"
     inkscape:pagecheckerboard="0"
     inkscape:deskcolor="#d1d1d1"
     inkscape:zoom="5.9441164"
     inkscape:cx="34.908469"
     inkscape:cy="29.35676"
     inkscape:window-width="1920"
     inkscape:window-height="1009"
     inkscape:window-x="1912"
     inkscape:window-y="-8"
     inkscape:window-maximized="1"
     inkscape:current-layer="Icons_Badge10" />
  <path
     d="M58.186 34.449C53.912 34.449 51.7757 38.9093 51.777 47.83 51.777 52.014 52.3027 55.1473 53.354 57.23 54.1346 59.1339 55.9964 60.3702 58.054 60.351 62.148 60.351 64.1953 56.112 64.196 47.634 64.196 43.1853 63.709 39.876 62.735 37.706 61.761 35.536 60.2447 34.4503 58.186 34.449Z"
     fill="#26787A"
     id="path2" />
  <path
     d="m -42.392747,10.338297 c -20.9752,0 -37.979,17.0038 -37.979,37.979 0,20.9752 17.0038,37.979001 37.979,37.979001 20.9752,0 37.9789999,-17.0038 37.9789999,-37.979 0.009,-20.965801 -16.9791999,-37.9696 -37.9449999,-37.979001 -0.0113,-1e-5 -0.0227,-1e-5 -0.034,0 z m -8.834,54.105 h -5.777 v -27.592 c -0.488,0.333301 -1.003,0.6543 -1.545,0.963001 -0.5417,0.309699 -1.1014,0.586799 -1.676,0.829999 -0.6207,0.2427 -1.2737,0.4693 -1.959,0.68 -0.6853,0.210701 -1.438,0.4157 -2.258,0.615001 v -4.616001 c 0.5527,-0.154 1.056,-0.3087 1.51,-0.464 0.454,-0.1553 0.9027,-0.3103 1.346,-0.465 0.441,-0.177 0.885,-0.36 1.328,-0.548 0.443,-0.188 0.885,-0.371 1.328,-0.548 0.42,-0.2207 0.8457,-0.442 1.277,-0.664 0.4313,-0.222 0.858,-0.4553 1.28,-0.7 0.4667,-0.2433 0.9257,-0.51 1.377,-0.8 0.4513,-0.29 0.911,-0.5567 1.379,-0.8 h 2.39 z m 30.073,-9.364 c -0.4405,1.9705 -1.2701,3.8333 -2.44,5.479 -2.0924,2.9186 -5.5116,4.5903 -9.1,4.449 -1.7038,0.0381 -3.3926,-0.3264 -4.929,-1.064 -1.4652,-0.7594 -2.7323,-1.8512 -3.7,-3.188 -2.0593,-2.808 -3.089,-6.9243 -3.089,-12.349 -0.0376,-2.6212 0.2238,-5.2381 0.779,-7.8 0.4368,-2.0233 1.2664,-3.9413 2.442,-5.645 2.105,-3.0025 5.6001,-4.7189 9.263,-4.549 7.7027,0 11.5543,5.7333 11.555,17.2 0.0336,2.511 -0.2285,5.0173 -0.781,7.467 z"
     fill="#26787a"
     id="path1-0" />
  <path
     d="m -32.192747,34.792297 c -4.274,0 -6.4103,4.4603 -6.409,13.381 0,4.184 0.5257,7.3173 1.577,9.4 0.7806,1.903901 2.6424,3.140201 4.7,3.121001 4.094,0 6.1413,-4.239001 6.142,-12.717001 0,-4.4487 -0.487,-7.758 -1.461,-9.928 -0.974,-2.17 -2.4903,-3.255699 -4.549,-3.257 z"
     fill="#26787a"
     id="path2-9" />
  <circle
     style="fill:#26787a;stroke:#26787a;stroke-width:1.00402;stroke-linecap:square;stroke-linejoin:round;stroke-dasharray:none;stroke-opacity:1;fill-opacity:1"
     id="path3"
     cx="48"
     cy="48"
     r="37.49799" />
  <text
     xml:space="preserve"
     style="font-style:normal;font-variant:normal;font-weight:normal;font-stretch:normal;font-size:46.6667px;line-height:0;font-family:Arial;-inkscape-font-specification:Arial;text-align:start;writing-mode:lr-tb;direction:ltr;text-anchor:start;fill:#ffffff;stroke:#ffffff;stroke-width:1;stroke-linecap:square;stroke-linejoin:round;stroke-dasharray:none;stroke-opacity:1"
     x="21.203106"
     y="64.417656"
     id="text1"><tspan
       sodipodi:role="line"
       id="tspan1"
       x="21.203106"
       y="64.417656"
       style="font-style:normal;font-variant:normal;font-weight:normal;font-stretch:normal;font-size:46.6667px;font-family:'Segoe UI';-inkscape-font-specification:'Segoe UI';fill:#ffffff;stroke:#ffffff;stroke-opacity:1">11</tspan></text>
</svg>
