<?xml version="1.0" encoding="UTF-8" standalone="no"?>
<svg
   viewBox="0 0 96 96"
   id="Icons_Badge9"
   overflow="hidden"
   version="1.1"
   sodipodi:docname="ui_number_09.svg"
   inkscape:export-filename="ui_number_09.png"
   inkscape:export-xdpi="96"
   inkscape:export-ydpi="96"
   inkscape:version="1.4 (86a8ad7, 2024-10-11)"
   xmlns:inkscape="http://www.inkscape.org/namespaces/inkscape"
   xmlns:sodipodi="http://sodipodi.sourceforge.net/DTD/sodipodi-0.dtd"
   xmlns="http://www.w3.org/2000/svg"
   xmlns:svg="http://www.w3.org/2000/svg">
  <defs
     id="defs2" />
  <sodipodi:namedview
     id="namedview2"
     pagecolor="#ffffff"
     bordercolor="#000000"
     borderopacity="0.25"
     inkscape:showpageshadow="2"
     inkscape:pageopacity="0.0"
     inkscape:pagecheckerboard="0"
     inkscape:deskcolor="#d1d1d1"
     inkscape:zoom="8.40625"
     inkscape:cx="48"
     inkscape:cy="48"
     inkscape:window-width="1920"
     inkscape:window-height="1009"
     inkscape:window-x="3832"
     inkscape:window-y="-8"
     inkscape:window-maximized="1"
     inkscape:current-layer="Icons_Badge9" />
  <path
     d="M53.074 35.981C52.4547 35.3365 51.7083 34.8278 50.882 34.487 49.9329 34.1056 48.9167 33.9192 47.894 33.939 46.9355 33.9169 45.9855 34.1225 45.122 34.539 44.3653 34.914 43.6975 35.4462 43.163 36.1 42.6399 36.7461 42.2402 37.4831 41.984 38.274 41.7194 39.072 41.5843 39.9073 41.584 40.748 41.5591 41.766 41.746 42.7781 42.133 43.72 42.463 44.5006 42.9552 45.2021 43.577 45.778 44.1657 46.3171 44.8615 46.726 45.619 46.978 46.3731 47.2313 47.1635 47.3603 47.959 47.36 48.8107 47.3582 49.655 47.2006 50.45 46.895 51.2604 46.5893 52.0089 46.1394 52.659 45.567 53.3202 44.9791 53.8612 44.2687 54.252 43.475 54.6694 42.617 54.8797 41.673 54.866 40.719 54.8685 39.8469 54.7168 38.9813 54.418 38.162 54.1253 37.35 53.6677 36.6075 53.074 35.981Z"
     fill="#26787A"
     id="path1" />
  <path
     d="M47.979 10C27.0032 9.99945 9.99855 27.0032 9.998 47.979 9.99745 68.9548 27.0012 85.9594 47.977 85.96 68.9528 85.9605 85.9575 68.9568 85.958 47.981 85.958 47.9807 85.958 47.9803 85.958 47.98 85.9679 27.0142 68.9798 10.0099 48.014 10 48.0023 9.99999 47.9907 9.99999 47.979 10ZM59.931 49.412C59.6593 50.9442 59.2421 52.447 58.685 53.9 58.1405 55.3214 57.4334 56.675 56.578 57.934 55.739 59.1683 54.7266 60.2753 53.572 61.221 52.4005 62.1736 51.0756 62.9202 49.654 63.429 48.0863 63.979 46.4343 64.2498 44.773 64.229 42.6194 64.3111 40.4718 63.9493 38.464 63.166L38.464 58.576C40.3934 59.5351 42.5184 60.0352 44.673 60.037 46.353 60.0871 48.0158 59.6858 49.488 58.875 50.7821 58.1327 51.8847 57.0981 52.708 55.854 53.5498 54.5591 54.1564 53.1258 54.5 51.62 54.8769 50.0373 55.0665 48.4159 55.065 46.789L54.965 46.789C54.5714 47.4693 54.1039 48.1042 53.571 48.682 53.0351 49.2606 52.4271 49.7681 51.762 50.192 51.0755 50.6291 50.3322 50.9699 49.553 51.205 48.7249 51.4531 47.8644 51.5761 47 51.57 45.5298 51.5895 44.0697 51.3246 42.7 50.79 41.4537 50.3022 40.3184 49.5682 39.362 48.632 38.4234 47.7025 37.6873 46.5888 37.2 45.361 36.6832 44.062 36.4237 42.675 36.436 41.277 36.4189 39.6908 36.6948 38.115 37.25 36.629 37.7579 35.2651 38.5435 34.0215 39.557 32.977 40.5911 31.9321 41.8375 31.1215 43.212 30.6 44.7605 30.0157 46.4051 29.7283 48.06 29.753 50.0562 29.6928 52.034 30.1514 53.8 31.084 55.3222 31.9254 56.6242 33.1143 57.6 34.554 58.5849 36.0249 59.2963 37.6615 59.7 39.385 60.1283 41.1572 60.3452 42.9738 60.346 44.797 60.3434 46.3445 60.2045 47.8888 59.931 49.412Z"
     fill="#26787A"
     id="path2" />
</svg>
