<?xml version="1.0" encoding="UTF-8" standalone="no"?>
<svg
   viewBox="0 0 96 96"
   id="Icons_Badge1"
   overflow="hidden"
   version="1.1"
   sodipodi:docname="ui_number_01.svg"
   inkscape:export-filename="ui_number_01.png"
   inkscape:export-xdpi="96"
   inkscape:export-ydpi="96"
   inkscape:version="1.4 (86a8ad7, 2024-10-11)"
   xmlns:inkscape="http://www.inkscape.org/namespaces/inkscape"
   xmlns:sodipodi="http://sodipodi.sourceforge.net/DTD/sodipodi-0.dtd"
   xmlns="http://www.w3.org/2000/svg"
   xmlns:svg="http://www.w3.org/2000/svg">
  <defs
     id="defs1" />
  <sodipodi:namedview
     id="namedview1"
     pagecolor="#ffffff"
     bordercolor="#000000"
     borderopacity="0.25"
     inkscape:showpageshadow="2"
     inkscape:pageopacity="0.0"
     inkscape:pagecheckerboard="0"
     inkscape:deskcolor="#d1d1d1"
     inkscape:zoom="8.40625"
     inkscape:cx="48"
     inkscape:cy="48"
     inkscape:window-width="1920"
     inkscape:window-height="1009"
     inkscape:window-x="3832"
     inkscape:window-y="-8"
     inkscape:window-maximized="1"
     inkscape:current-layer="Icons_Badge1" />
  <path
     d="M47.986 10C27.0108 10 10.007 27.0038 10.007 47.979 10.007 68.9542 27.0108 85.958 47.986 85.958 68.9612 85.958 85.965 68.9542 85.965 47.979 85.965 47.9777 85.965 47.9763 85.965 47.975 85.9722 27.0092 68.9818 10.0072 48.016 10 48.006 9.99999 47.996 9.99999 47.986 10ZM52.152 64.1 46.375 64.1 46.375 36.509C45.887 36.8423 45.372 37.1633 44.83 37.472 44.2883 37.7817 43.7286 38.0588 43.154 38.302 42.5327 38.546 41.8797 38.773 41.195 38.983 40.5103 39.193 39.7577 39.3977 38.937 39.597L38.937 34.982C39.4903 34.8267 39.9937 34.6717 40.447 34.517 40.9003 34.3623 41.349 34.2073 41.793 34.052 42.234 33.875 42.678 33.693 43.121 33.504 43.564 33.315 44.006 33.134 44.449 32.956 44.869 32.7347 45.2947 32.5133 45.726 32.292 46.1573 32.0707 46.584 31.8373 47.006 31.592 47.4727 31.3493 47.9317 31.0827 48.383 30.792 48.8343 30.5013 49.294 30.2347 49.762 29.992L52.152 29.992Z"
     fill="#26787A"
     id="path1" />
</svg>
