<?xml version="1.0" encoding="UTF-8" standalone="no"?>
<svg
   viewBox="0 0 96 96"
   id="Icons_Badge4"
   overflow="hidden"
   version="1.1"
   sodipodi:docname="ui_number_04.svg"
   inkscape:export-filename="ui_number_04.png"
   inkscape:export-xdpi="96"
   inkscape:export-ydpi="96"
   inkscape:version="1.4 (86a8ad7, 2024-10-11)"
   xmlns:inkscape="http://www.inkscape.org/namespaces/inkscape"
   xmlns:sodipodi="http://sodipodi.sourceforge.net/DTD/sodipodi-0.dtd"
   xmlns="http://www.w3.org/2000/svg"
   xmlns:svg="http://www.w3.org/2000/svg">
  <defs
     id="defs2" />
  <sodipodi:namedview
     id="namedview2"
     pagecolor="#ffffff"
     bordercolor="#000000"
     borderopacity="0.25"
     inkscape:showpageshadow="2"
     inkscape:pageopacity="0.0"
     inkscape:pagecheckerboard="0"
     inkscape:deskcolor="#d1d1d1"
     inkscape:zoom="8.40625"
     inkscape:cx="48"
     inkscape:cy="48"
     inkscape:window-width="1920"
     inkscape:window-height="1009"
     inkscape:window-x="3832"
     inkscape:window-y="-8"
     inkscape:window-maximized="1"
     inkscape:current-layer="Icons_Badge4" />
  <path
     d="M43.962 46C43.186 47.118 42.4223 48.1513 41.671 49.1 40.9197 50.0487 40.1337 51.0003 39.313 51.955L49.274 51.955 49.274 37.416C48.2327 39.2533 47.281 40.8637 46.419 42.247 45.557 43.6303 44.738 44.8813 43.962 46Z"
     fill="#26787A"
     id="path1" />
  <path
     d="M47.986 10C27.0102 9.99945 10.0056 27.0032 10.005 47.979 10.0044 68.9548 27.0082 85.9594 47.984 85.96 68.9598 85.9605 85.9644 68.9568 85.965 47.981 85.965 47.9807 85.965 47.9803 85.965 47.98 85.9744 27.0136 68.9854 10.0094 48.019 10 48.008 10 47.997 10 47.986 10ZM59.567 56.773 55.018 56.773 55.018 63.912 49.274 63.912 49.274 56.773 33.635 56.773 33.635 52.225C35.1843 50.5423 36.7007 48.7713 38.184 46.912 39.6673 45.0527 41.062 43.1657 42.368 41.251 43.674 39.3363 44.8863 37.4327 46.005 35.54 47.1237 33.6473 48.1137 31.8157 48.975 30.045L55.018 30.045 55.018 51.959 59.567 51.959Z"
     fill="#26787A"
     id="path2" />
</svg>
