<?xml version="1.0" encoding="UTF-8" standalone="no"?>
<svg
   viewBox="0 0 96 96"
   id="Icons_Badge7"
   overflow="hidden"
   version="1.1"
   sodipodi:docname="ui_number_07.svg"
   inkscape:export-filename="ui_number_07.png"
   inkscape:export-xdpi="96"
   inkscape:export-ydpi="96"
   inkscape:version="1.4 (86a8ad7, 2024-10-11)"
   xmlns:inkscape="http://www.inkscape.org/namespaces/inkscape"
   xmlns:sodipodi="http://sodipodi.sourceforge.net/DTD/sodipodi-0.dtd"
   xmlns="http://www.w3.org/2000/svg"
   xmlns:svg="http://www.w3.org/2000/svg">
  <defs
     id="defs1" />
  <sodipodi:namedview
     id="namedview1"
     pagecolor="#ffffff"
     bordercolor="#000000"
     borderopacity="0.25"
     inkscape:showpageshadow="2"
     inkscape:pageopacity="0.0"
     inkscape:pagecheckerboard="0"
     inkscape:deskcolor="#d1d1d1"
     inkscape:zoom="8.40625"
     inkscape:cx="48"
     inkscape:cy="48"
     inkscape:window-width="1920"
     inkscape:window-height="1009"
     inkscape:window-x="3832"
     inkscape:window-y="-8"
     inkscape:window-maximized="1"
     inkscape:current-layer="Icons_Badge7" />
  <path
     d="M47.979 10C27.0038 10 10 27.0038 10 47.979 10 68.9542 27.0038 85.958 47.979 85.958 68.9542 85.958 85.958 68.9542 85.958 47.979 85.958 47.978 85.958 47.977 85.958 47.976 85.9652 27.0096 68.9744 10.0072 48.008 10 47.9983 10 47.9887 10 47.979 10ZM61.335 34.14C59.807 36.752 58.346 39.3253 56.952 41.86 55.558 44.3947 54.2913 46.9237 53.152 49.447 52.0304 51.9226 51.0387 54.4551 50.181 57.034 49.3456 59.546 48.6909 62.1146 48.222 64.72L42.608 64.72C43.0048 62.1595 43.6211 59.6379 44.45 57.183 45.2938 54.6927 46.2692 52.2489 47.372 49.862 48.4887 47.438 49.717 45.014 51.057 42.59 52.397 40.166 53.7753 37.7147 55.192 35.236L36.93 35.236 36.93 30.621 61.335 30.621Z"
     fill="#26787A"
     id="path1" />
</svg>
