<?xml version="1.0" encoding="UTF-8" standalone="no"?>
<svg
   viewBox="0 0 96 96"
   id="Icons_Badge10"
   overflow="hidden"
   version="1.1"
   sodipodi:docname="ui_number_10.svg"
   inkscape:export-filename="ui_number_10.png"
   inkscape:export-xdpi="96"
   inkscape:export-ydpi="96"
   inkscape:version="1.4 (86a8ad7, 2024-10-11)"
   xmlns:inkscape="http://www.inkscape.org/namespaces/inkscape"
   xmlns:sodipodi="http://sodipodi.sourceforge.net/DTD/sodipodi-0.dtd"
   xmlns="http://www.w3.org/2000/svg"
   xmlns:svg="http://www.w3.org/2000/svg">
  <defs
     id="defs2" />
  <sodipodi:namedview
     id="namedview2"
     pagecolor="#ffffff"
     bordercolor="#000000"
     borderopacity="0.25"
     inkscape:showpageshadow="2"
     inkscape:pageopacity="0.0"
     inkscape:pagecheckerboard="0"
     inkscape:deskcolor="#d1d1d1"
     inkscape:zoom="8.40625"
     inkscape:cx="48"
     inkscape:cy="48"
     inkscape:window-width="1920"
     inkscape:window-height="1009"
     inkscape:window-x="3832"
     inkscape:window-y="-8"
     inkscape:window-maximized="1"
     inkscape:current-layer="Icons_Badge10" />
  <path
     d="M47.986 9.995C27.0108 9.995 10.007 26.9988 10.007 47.974 10.007 68.9492 27.0108 85.953 47.986 85.953 68.9612 85.953 85.965 68.9492 85.965 47.974 85.9744 27.0082 68.9858 10.0044 48.02 9.995 48.0087 9.99499 47.9973 9.99499 47.986 9.995ZM39.152 64.1 33.375 64.1 33.375 36.508C32.887 36.8413 32.372 37.1623 31.83 37.471 31.2883 37.7807 30.7286 38.0578 30.154 38.301 29.5333 38.5437 28.8803 38.7703 28.195 38.981 27.5097 39.1917 26.757 39.3967 25.937 39.596L25.937 34.98C26.4897 34.826 26.993 34.6713 27.447 34.516 27.901 34.3607 28.3497 34.2057 28.793 34.051 29.234 33.874 29.678 33.691 30.121 33.503 30.564 33.315 31.006 33.132 31.449 32.955 31.869 32.7343 32.2947 32.513 32.726 32.291 33.1573 32.069 33.584 31.8357 34.006 31.591 34.4727 31.3477 34.9317 31.081 35.383 30.791 35.8343 30.501 36.294 30.2343 36.762 29.991L39.152 29.991ZM69.225 54.736C68.7845 56.7065 67.9549 58.5693 66.785 60.215 64.6926 63.1336 61.2734 64.8053 57.685 64.664 55.9812 64.7021 54.2924 64.3376 52.756 63.6 51.2908 62.8406 50.0237 61.7488 49.056 60.412 46.9967 57.604 45.967 53.4877 45.967 48.063 45.9294 45.4418 46.1908 42.8249 46.746 40.263 47.1828 38.2397 48.0124 36.3217 49.188 34.618 51.293 31.6155 54.7881 29.8991 58.451 30.069 66.1537 30.069 70.0053 35.8023 70.006 47.269 70.0396 49.78 69.7775 52.2863 69.225 54.736Z"
     fill="#26787A"
     id="path1" />
  <path
     d="M58.186 34.449C53.912 34.449 51.7757 38.9093 51.777 47.83 51.777 52.014 52.3027 55.1473 53.354 57.23 54.1346 59.1339 55.9964 60.3702 58.054 60.351 62.148 60.351 64.1953 56.112 64.196 47.634 64.196 43.1853 63.709 39.876 62.735 37.706 61.761 35.536 60.2447 34.4503 58.186 34.449Z"
     fill="#26787A"
     id="path2" />
</svg>
