<?xml version="1.0" encoding="UTF-8" standalone="no"?>
<svg
   viewBox="0 0 96 96"
   id="Icons_Badge8"
   overflow="hidden"
   version="1.1"
   sodipodi:docname="ui_number_08.svg"
   inkscape:export-filename="ui_number_08.png"
   inkscape:export-xdpi="96"
   inkscape:export-ydpi="96"
   inkscape:version="1.4 (86a8ad7, 2024-10-11)"
   xmlns:inkscape="http://www.inkscape.org/namespaces/inkscape"
   xmlns:sodipodi="http://sodipodi.sourceforge.net/DTD/sodipodi-0.dtd"
   xmlns="http://www.w3.org/2000/svg"
   xmlns:svg="http://www.w3.org/2000/svg">
  <defs
     id="defs3" />
  <sodipodi:namedview
     id="namedview3"
     pagecolor="#ffffff"
     bordercolor="#000000"
     borderopacity="0.25"
     inkscape:showpageshadow="2"
     inkscape:pageopacity="0.0"
     inkscape:pagecheckerboard="0"
     inkscape:deskcolor="#d1d1d1"
     inkscape:zoom="8.40625"
     inkscape:cx="48"
     inkscape:cy="48"
     inkscape:window-width="1920"
     inkscape:window-height="1009"
     inkscape:window-x="3832"
     inkscape:window-y="-8"
     inkscape:window-maximized="1"
     inkscape:current-layer="Icons_Badge8" />
  <path
     d="M52.92 49.843C52.3335 49.2971 51.6478 48.8687 50.9 48.581 50.0678 48.2629 49.1829 48.1051 48.292 48.116 47.3909 48.103 46.4954 48.2608 45.653 48.581 44.9033 48.8679 44.2158 49.2964 43.628 49.843 43.0733 50.3606 42.6323 50.9879 42.333 51.685 42.0339 52.3825 41.8811 53.134 41.884 53.893 41.8001 55.5477 42.38 57.1675 43.495 58.393 44.7945 59.601 46.5222 60.2406 48.295 60.17L48.328 60.17C49.1899 60.1781 50.0458 60.0258 50.852 59.721 51.603 59.4383 52.2874 59.0031 52.862 58.443 53.4348 57.8756 53.8866 57.198 54.19 56.451 54.5172 55.6387 54.6804 54.7697 54.67 53.894 54.6736 53.1352 54.5214 52.3837 54.223 51.686 53.9215 50.9878 53.4777 50.3601 52.92 49.843Z"
     fill="#26787A"
     id="path1" />
  <path
     d="M44.734 42.123C45.689 43.0387 46.964 43.5451 48.287 43.534 48.9428 43.5358 49.5923 43.4059 50.197 43.152 50.7867 42.9092 51.327 42.5605 51.791 42.123 52.2433 41.6926 52.6092 41.1797 52.869 40.612 53.137 40.0292 53.2736 39.3945 53.269 38.753 53.2791 38.0732 53.1427 37.3993 52.869 36.777 52.6123 36.2028 52.2462 35.6841 51.791 35.25 51.336 34.816 50.7997 34.4762 50.213 34.25 49.5985 34.0141 48.9452 33.8958 48.287 33.901 47.6059 33.896 46.93 34.0198 46.295 34.266 45.7006 34.4947 45.1582 34.8406 44.7 35.283 44.2518 35.7225 43.8965 36.2476 43.655 36.827 43.3971 37.4361 43.2668 38.0916 43.272 38.753 43.2674 39.3945 43.404 40.0291 43.672 40.612 43.9299 41.1768 44.2899 41.6891 44.734 42.123Z"
     fill="#26787A"
     id="path2" />
  <path
     d="M47.979 10C27.0032 9.99945 9.99855 27.0032 9.998 47.979 9.99745 68.9548 27.0012 85.9594 47.977 85.96 68.9528 85.9605 85.9575 68.9568 85.958 47.981 85.958 47.9797 85.958 47.9783 85.958 47.977 85.9663 27.0112 68.9768 10.0083 48.011 10 48.0003 9.99999 47.9897 9.99999 47.979 10ZM59.045 58.774C58.4044 59.9665 57.5223 61.0124 56.455 61.845 55.3189 62.7251 54.0309 63.3891 52.655 63.804 51.1767 64.2627 49.6368 64.4923 48.089 64.485 46.6006 64.4911 45.1189 64.2843 43.689 63.871 42.3426 63.4925 41.0805 62.8613 39.97 62.011 37.6585 60.2417 36.3416 57.4665 36.433 54.557 36.4295 53.5807 36.5862 52.6105 36.897 51.685 37.2056 50.7696 37.6539 49.9074 38.226 49.129 38.8081 48.3359 39.5075 47.6359 40.3 47.053 41.1258 46.4457 42.0375 45.9648 43.005 45.626 41.5271 44.9317 40.2564 43.863 39.319 42.526 38.4409 41.2528 37.9772 39.7396 37.991 38.193 37.9768 36.9795 38.251 35.7799 38.791 34.693 39.3199 33.645 40.0669 32.7223 40.982 31.987 41.9519 31.2133 43.0545 30.6227 44.236 30.244 45.523 29.8276 46.8684 29.6203 48.221 29.63 49.5456 29.6228 50.8627 29.8302 52.121 30.244 53.2934 30.6235 54.3891 31.2083 55.357 31.971 56.2797 32.7033 57.0333 33.6264 57.566 34.677 58.1193 35.7903 58.3981 37.0199 58.379 38.263 58.3846 39.7169 57.9756 41.1422 57.2 42.372 56.2559 43.773 54.9547 44.8963 53.431 45.626 54.5056 45.9829 55.5108 46.5218 56.403 47.219 57.1952 47.8431 57.884 48.5883 58.444 49.427 58.9685 50.2186 59.3676 51.0865 59.627 52 59.8796 52.8969 60.0078 53.8242 60.008 54.756 60.0291 56.1549 59.6979 57.5366 59.045 58.774Z"
     fill="#26787A"
     id="path3" />
</svg>
